<svg xmlns="http://www.w3.org/2000/svg" xmlns:xlink="http://www.w3.org/1999/xlink" width="1280" height="802" viewBox="0 0 1280 802">
  <defs>
    <clipPath id="clip-path">
      <rect id="Mask" width="1280" height="802" fill="#1a1a1a"/>
    </clipPath>
    <radialGradient id="radial-gradient" cx="0.5" cy="0.5" r="2.832" gradientUnits="objectBoundingBox">
      <stop offset="0" stop-color="#616161"/>
      <stop offset="1" stop-color="#c2c2c2"/>
    </radialGradient>
    <radialGradient id="radial-gradient-2" cx="0.5" cy="0.5" r="0.5" xlink:href="#radial-gradient"/>
    <radialGradient id="radial-gradient-3" cx="0.5" cy="0.5" r="40.95" xlink:href="#radial-gradient"/>
    <radialGradient id="radial-gradient-5" cx="0.5" cy="0.5" r="1.164" xlink:href="#radial-gradient"/>
    <radialGradient id="radial-gradient-6" cx="0.5" cy="0.5" r="0.5" xlink:href="#radial-gradient"/>
    <radialGradient id="radial-gradient-7" cx="0.5" cy="0.5" r="1.661" xlink:href="#radial-gradient"/>
    <radialGradient id="radial-gradient-8" cx="0.5" cy="0.5" r="0.5" xlink:href="#radial-gradient"/>
    <radialGradient id="radial-gradient-9" cx="0.5" cy="0.5" r="1.589" xlink:href="#radial-gradient"/>
    <radialGradient id="radial-gradient-10" cx="0.5" cy="0.5" r="0.5" xlink:href="#radial-gradient"/>
    <radialGradient id="radial-gradient-12" cx="0.5" cy="0.5" r="28.207" xlink:href="#radial-gradient"/>
    <radialGradient id="radial-gradient-14" cx="0.5" cy="0.5" r="1.943" xlink:href="#radial-gradient"/>
    <radialGradient id="radial-gradient-16" cx="0.5" cy="0.5" r="2.705" xlink:href="#radial-gradient"/>
    <radialGradient id="radial-gradient-18" cx="0.5" cy="0.5" r="2.447" xlink:href="#radial-gradient"/>
    <radialGradient id="radial-gradient-20" cx="0.5" cy="0.5" r="1.484" xlink:href="#radial-gradient"/>
    <radialGradient id="radial-gradient-23" cx="0.5" cy="0.5" r="1.584" xlink:href="#radial-gradient"/>
    <radialGradient id="radial-gradient-25" cx="0.5" cy="0.5" r="1.905" xlink:href="#radial-gradient"/>
    <radialGradient id="radial-gradient-27" cx="0.5" cy="0.5" r="2.031" xlink:href="#radial-gradient"/>
    <radialGradient id="radial-gradient-28" cx="0.5" cy="0.5" r="0.5" xlink:href="#radial-gradient"/>
    <radialGradient id="radial-gradient-29" cx="0.5" cy="0.5" r="5.008" xlink:href="#radial-gradient"/>
    <radialGradient id="radial-gradient-31" cx="0.5" cy="0.5" r="6.187" xlink:href="#radial-gradient"/>
    <radialGradient id="radial-gradient-33" cx="0.5" cy="0.5" r="2.271" xlink:href="#radial-gradient"/>
    <radialGradient id="radial-gradient-35" cx="0.5" cy="0.5" r="2.553" xlink:href="#radial-gradient"/>
    <radialGradient id="radial-gradient-37" cx="0.5" cy="0.5" r="2.14" xlink:href="#radial-gradient"/>
    <radialGradient id="radial-gradient-40" cx="0.5" cy="0.5" r="85.551" xlink:href="#radial-gradient"/>
    <radialGradient id="radial-gradient-42" cx="0.5" cy="0.5" r="2.489" xlink:href="#radial-gradient"/>
    <radialGradient id="radial-gradient-44" cx="0.5" cy="0.5" r="3.574" xlink:href="#radial-gradient"/>
    <radialGradient id="radial-gradient-45" cx="0.5" cy="0.5" r="0.5" xlink:href="#radial-gradient"/>
    <radialGradient id="radial-gradient-47" cx="0.5" cy="0.5" r="60.245" xlink:href="#radial-gradient"/>
    <radialGradient id="radial-gradient-49" cx="0.5" cy="0.5" r="0.5" xlink:href="#radial-gradient"/>
    <linearGradient id="linear-gradient" x1="0.5" x2="0.5" y2="1" gradientUnits="objectBoundingBox">
      <stop offset="0" stop-color="#ebd0ff"/>
      <stop offset="1" stop-color="#d35384"/>
    </linearGradient>
    <filter id="Path_83333" x="-186.666" y="133.108" width="338.986" height="340.662" filterUnits="userSpaceOnUse">
      <feOffset dy="3" input="SourceAlpha"/>
      <feGaussianBlur stdDeviation="25" result="blur"/>
      <feFlood flood-color="#ff6ab5"/>
      <feComposite operator="in" in2="blur"/>
      <feComposite in="SourceGraphic"/>
    </filter>
    <linearGradient id="linear-gradient-2" x1="0.5" x2="0.756" y2="1" gradientUnits="objectBoundingBox">
      <stop offset="0" stop-color="#bccaff"/>
      <stop offset="1" stop-color="#7b94fc"/>
    </linearGradient>
    <filter id="Ellipse_5797" x="1132" y="437" width="326" height="324" filterUnits="userSpaceOnUse">
      <feOffset dy="3" input="SourceAlpha"/>
      <feGaussianBlur stdDeviation="25" result="blur-2"/>
      <feFlood flood-color="#9db0ff"/>
      <feComposite operator="in" in2="blur-2"/>
      <feComposite in="SourceGraphic"/>
    </filter>
  </defs>
  <g id="Hero_BG" data-name="Hero BG" clip-path="url(#clip-path)">
    <rect id="BG" width="1280" height="802" fill="#1a1a1a"/>
    <g id="Group_57330" data-name="Group 57330" transform="translate(980.931 800.628) rotate(-90)" opacity="0.197">
      <g id="Group_57278" data-name="Group 57278" transform="translate(409.623 275.376)">
        <path id="Path_83161" data-name="Path 83161" d="M391,7.235H336.373L293.3,65.537H212.883L164.465,0H0V1.069H164.138l48.418,65.537h81.072L336.7,8.3H391Z" fill="url(#radial-gradient)" style="mix-blend-mode: color-dodge;isolation: isolate"/>
      </g>
      <g id="Group_57279" data-name="Group 57279" transform="translate(408.213 273.901)">
        <ellipse id="Ellipse_5826" data-name="Ellipse 5826" cx="1.485" cy="2.01" rx="1.485" ry="2.01" transform="translate(0)" fill="url(#radial-gradient-2)" style="mix-blend-mode: color-dodge;isolation: isolate"/>
      </g>
      <g id="Group_57280" data-name="Group 57280" transform="translate(709.158 111.682)">
        <rect id="Rectangle_12089" data-name="Rectangle 12089" width="91.47" height="1.069" fill="url(#radial-gradient-3)" style="mix-blend-mode: color-dodge;isolation: isolate"/>
      </g>
      <g id="Group_57281" data-name="Group 57281" transform="translate(707.747 110.206)">
        <ellipse id="Ellipse_5827" data-name="Ellipse 5827" cx="1.485" cy="2.01" rx="1.485" ry="2.01" fill="url(#radial-gradient-2)" style="mix-blend-mode: color-dodge;isolation: isolate"/>
      </g>
      <g id="Group_57282" data-name="Group 57282" transform="translate(693.914 63.221)">
        <path id="Path_83162" data-name="Path 83162" d="M106.714,0H33.473L0,45.308l.559.756,33.242-45h72.914Z" transform="translate(0)" fill="url(#radial-gradient-5)" style="mix-blend-mode: color-dodge;isolation: isolate"/>
      </g>
      <g id="Group_57283" data-name="Group 57283" transform="translate(692.761 106.827)">
        <path id="Path_83163" data-name="Path 83163" d="M.435.589a2.538,2.538,0,0,0,0,2.842,1.231,1.231,0,0,0,2.1,0,2.539,2.539,0,0,0,0-2.842A1.23,1.23,0,0,0,.435.589Z" transform="translate(0)" fill="url(#radial-gradient-6)" style="mix-blend-mode: color-dodge;isolation: isolate"/>
      </g>
      <g id="Group_57284" data-name="Group 57284" transform="translate(408.387 24.061)">
        <path id="Path_83164" data-name="Path 83164" d="M392.241,0H238.547L179.2,80.326H130.864l-25.339,34.3H0v1.069H105.852l25.339-34.3h48.341L238.874,1.069H392.241Z" fill="url(#radial-gradient-7)" style="mix-blend-mode: color-dodge;isolation: isolate"/>
      </g>
      <g id="Group_57285" data-name="Group 57285" transform="translate(406.976 137.21)">
        <path id="Path_83165" data-name="Path 83165" d="M1.485,0C.665,0,0,.9,0,2.01S.665,4.02,1.485,4.02,2.97,3.12,2.97,2.01,2.3,0,1.485,0Z" fill="url(#radial-gradient-8)" style="mix-blend-mode: color-dodge;isolation: isolate"/>
      </g>
      <g id="Group_57286" data-name="Group 57286" transform="translate(485.126 124.393)">
        <path id="Path_83166" data-name="Path 83166" d="M119.433,62.221H0V61.152H119.106L164.283,0h37.122V1.069h-36.8Z" fill="url(#radial-gradient-9)" style="mix-blend-mode: color-dodge;isolation: isolate"/>
      </g>
      <g id="Group_57287" data-name="Group 57287" transform="translate(684.973 122.917)">
        <path id="Path_83167" data-name="Path 83167" d="M1.484,0C2.3,0,2.969.9,2.969,2.01S2.3,4.019,1.484,4.019,0,3.119,0,2.01.665,0,1.484,0Z" fill="url(#radial-gradient-10)" style="mix-blend-mode: color-dodge;isolation: isolate"/>
      </g>
      <g id="Group_57288" data-name="Group 57288" transform="translate(483.716 184.069)">
        <ellipse id="Ellipse_5828" data-name="Ellipse 5828" cx="1.485" cy="2.01" rx="1.485" ry="2.01" fill="url(#radial-gradient-2)" style="mix-blend-mode: color-dodge;isolation: isolate"/>
      </g>
      <g id="Group_57289" data-name="Group 57289" transform="translate(737.625 85.022)">
        <rect id="Rectangle_12090" data-name="Rectangle 12090" width="63.003" height="1.069" fill="url(#radial-gradient-12)" style="mix-blend-mode: color-dodge;isolation: isolate"/>
      </g>
      <g id="Group_57290" data-name="Group 57290" transform="translate(736.214 83.546)">
        <ellipse id="Ellipse_5829" data-name="Ellipse 5829" cx="1.485" cy="2.01" rx="1.485" ry="2.01" fill="url(#radial-gradient-2)" style="mix-blend-mode: color-dodge;isolation: isolate"/>
      </g>
      <g id="Group_57291" data-name="Group 57291" transform="translate(498.741 239.996)">
        <path id="Path_83168" data-name="Path 83168" d="M301.887,0h-42.3L204.509,74.553H129.953L84.466,12.984H0v1.069H84.139l45.487,61.569h75.211L259.915,1.069h41.971Z" fill="url(#radial-gradient-14)" style="mix-blend-mode: color-dodge;isolation: isolate"/>
      </g>
      <g id="Group_57292" data-name="Group 57292" transform="translate(497.33 251.504)">
        <ellipse id="Ellipse_5830" data-name="Ellipse 5830" cx="1.485" cy="2.01" rx="1.485" ry="2.01" fill="url(#radial-gradient-2)" style="mix-blend-mode: color-dodge;isolation: isolate"/>
      </g>
      <g id="Group_57293" data-name="Group 57293" transform="translate(456.658 142.822)">
        <path id="Path_83169" data-name="Path 83169" d="M343.97,3.2,341.607,0H213.793L169.235,60.314H0v1.069H169.562L214.12,1.069H341.28l2.69,3.642Z" fill="url(#radial-gradient-16)" style="mix-blend-mode: color-dodge;isolation: isolate"/>
      </g>
      <g id="Group_57294" data-name="Group 57294" transform="translate(455.247 201.662)">
        <ellipse id="Ellipse_5831" data-name="Ellipse 5831" cx="1.485" cy="2.01" rx="1.485" ry="2.01" transform="translate(0)" fill="url(#radial-gradient-2)" style="mix-blend-mode: color-dodge;isolation: isolate"/>
      </g>
      <g id="Group_57295" data-name="Group 57295" transform="translate(490.077 203.137)">
        <path id="Path_83170" data-name="Path 83170" d="M310.551,0H253.4L208.841,60.314H149.756l-22.9-30.993H0V30.39H126.532l22.9,30.994h59.739L253.727,1.069h56.824Z" fill="url(#radial-gradient-18)" style="mix-blend-mode: color-dodge;isolation: isolate"/>
      </g>
      <g id="Group_57296" data-name="Group 57296" transform="translate(488.666 230.982)">
        <ellipse id="Ellipse_5832" data-name="Ellipse 5832" cx="1.485" cy="2.01" rx="1.485" ry="2.01" fill="url(#radial-gradient-2)" style="mix-blend-mode: color-dodge;isolation: isolate"/>
      </g>
      <g id="Group_57297" data-name="Group 57297" transform="translate(650.982 178.007)">
        <path id="Path_83171" data-name="Path 83171" d="M31.553,47.141H0V46.072H31.226L65.264,0h76.731V1.069h-76.4Z" transform="translate(0)" fill="url(#radial-gradient-20)" style="mix-blend-mode: color-dodge;isolation: isolate"/>
      </g>
      <g id="Group_57298" data-name="Group 57298" transform="translate(791.418 176.531)">
        <path id="Path_83172" data-name="Path 83172" d="M1.485,0C2.3,0,2.97.9,2.97,2.01S2.3,4.019,1.485,4.019,0,3.119,0,2.01.665,0,1.485,0Z" transform="translate(0)" fill="url(#radial-gradient-10)" style="mix-blend-mode: color-dodge;isolation: isolate"/>
      </g>
      <g id="Group_57299" data-name="Group 57299" transform="translate(649.572 222.603)">
        <ellipse id="Ellipse_5833" data-name="Ellipse 5833" cx="1.485" cy="2.01" rx="1.485" ry="2.01" fill="url(#radial-gradient-2)" style="mix-blend-mode: color-dodge;isolation: isolate"/>
      </g>
      <g id="Group_57300" data-name="Group 57300" transform="translate(443.043 50.681)">
        <path id="Path_83173" data-name="Path 83173" d="M357.585,0H232.359L175.422,77.067H123.438L99.3,109.737H0v1.069H99.628l24.137-32.67h51.984L232.686,1.069h124.9Z" fill="url(#radial-gradient-23)" style="mix-blend-mode: color-dodge;isolation: isolate"/>
      </g>
      <g id="Group_57301" data-name="Group 57301" transform="translate(441.633 158.943)">
        <ellipse id="Ellipse_5834" data-name="Ellipse 5834" cx="1.485" cy="2.01" rx="1.485" ry="2.01" fill="url(#radial-gradient-2)" style="mix-blend-mode: color-dodge;isolation: isolate"/>
      </g>
      <g id="Group_57302" data-name="Group 57302" transform="translate(372.492)">
        <path id="Path_83174" data-name="Path 83174" d="M428.136,0H262.064L212.4,67.225H175.423l-30.4,41.151H0v1.069H145.348l30.4-41.151h36.977L262.391,1.069H428.136Z" fill="url(#radial-gradient-25)" style="mix-blend-mode: color-dodge;isolation: isolate"/>
      </g>
      <g id="Group_57303" data-name="Group 57303" transform="translate(371.082 106.901)">
        <ellipse id="Ellipse_5835" data-name="Ellipse 5835" cx="1.485" cy="2.01" rx="1.485" ry="2.01" fill="url(#radial-gradient-2)" style="mix-blend-mode: color-dodge;isolation: isolate"/>
      </g>
      <g id="Group_57304" data-name="Group 57304" transform="translate(0 250.728)">
        <path id="Path_83175" data-name="Path 83175" d="M300.068,31.832l-45.8,61.99H75.127L5.813,0H0V1.069H5.486L74.8,94.891H254.6L300.4,32.9H396.6V31.832Z" fill="url(#radial-gradient-27)" style="mix-blend-mode: color-dodge;isolation: isolate"/>
      </g>
      <g id="Group_57305" data-name="Group 57305" transform="translate(395.043 281.084)">
        <path id="Path_83176" data-name="Path 83176" d="M1.485,4.02c.82,0,1.484-.9,1.484-2.01S2.3,0,1.485,0,0,.9,0,2.01.665,4.02,1.485,4.02Z" fill="url(#radial-gradient-28)" style="mix-blend-mode: color-dodge;isolation: isolate"/>
      </g>
      <g id="Group_57306" data-name="Group 57306" transform="translate(0 186.015)">
        <path id="Path_83177" data-name="Path 83177" d="M11.466,0,0,15.52v1.512L11.793,1.069H177.778V0Z" fill="url(#radial-gradient-29)" style="mix-blend-mode: color-dodge;isolation: isolate"/>
      </g>
      <g id="Group_57307" data-name="Group 57307" transform="translate(176.219 184.54)">
        <ellipse id="Ellipse_5836" data-name="Ellipse 5836" cx="1.485" cy="2.01" rx="1.485" ry="2.01" transform="translate(0)" fill="url(#radial-gradient-2)" style="mix-blend-mode: color-dodge;isolation: isolate"/>
      </g>
      <g id="Group_57308" data-name="Group 57308" transform="translate(0 149.932)">
        <path id="Path_83178" data-name="Path 83178" d="M6.437,0,0,8.714v1.512L6.764,1.069H131.982V0Z" fill="url(#radial-gradient-31)" style="mix-blend-mode: color-dodge;isolation: isolate"/>
      </g>
      <g id="Group_57309" data-name="Group 57309" transform="translate(130.423 148.456)">
        <path id="Path_83179" data-name="Path 83179" d="M1.484,0C2.3,0,2.969.9,2.969,2.01S2.3,4.019,1.484,4.019,0,3.119,0,2.01.665,0,1.484,0Z" fill="url(#radial-gradient-10)" style="mix-blend-mode: color-dodge;isolation: isolate"/>
      </g>
      <g id="Group_57310" data-name="Group 57310" transform="translate(0 114.225)">
        <path id="Path_83180" data-name="Path 83180" d="M308.193,89.089,285.541,58.429H202.714L159.548,0H19.666L0,26.62v1.512L19.993,1.069H159.221L202.387,59.5h82.827l22.652,30.66H422.595V89.089Z" fill="url(#radial-gradient-33)" style="mix-blend-mode: color-dodge;isolation: isolate"/>
      </g>
      <g id="Group_57311" data-name="Group 57311" transform="translate(421.036 201.839)">
        <ellipse id="Ellipse_5837" data-name="Ellipse 5837" cx="1.485" cy="2.01" rx="1.485" ry="2.01" transform="translate(0)" fill="url(#radial-gradient-2)" style="mix-blend-mode: color-dodge;isolation: isolate"/>
      </g>
      <g id="Group_57312" data-name="Group 57312" transform="translate(0 68.677)">
        <path id="Path_83181" data-name="Path 83181" d="M343.055,82.42,325.149,58.183H254.518L211.534,0H36.763L0,49.761v1.512l37.09-50.2H211.207l42.984,58.183h70.631l17.906,24.237h98.433V82.42Z" fill="url(#radial-gradient-35)" style="mix-blend-mode: color-dodge;isolation: isolate"/>
      </g>
      <g id="Group_57313" data-name="Group 57313" transform="translate(439.602 149.622)">
        <ellipse id="Ellipse_5838" data-name="Ellipse 5838" cx="1.485" cy="2.01" rx="1.485" ry="2.01" fill="url(#radial-gradient-2)" style="mix-blend-mode: color-dodge;isolation: isolate"/>
      </g>
      <g id="Group_57314" data-name="Group 57314" transform="translate(40.734 92.028)">
        <path id="Path_83182" data-name="Path 83182" d="M373.2,84.606H291.344L268,53.005H208.842L170.473,1.069H0V0H170.8l38.369,51.936h59.156l23.346,31.6H373.2Z" fill="url(#radial-gradient-37)" style="mix-blend-mode: color-dodge;isolation: isolate"/>
      </g>
      <g id="Group_57315" data-name="Group 57315" transform="translate(39.324 90.552)">
        <ellipse id="Ellipse_5839" data-name="Ellipse 5839" cx="1.485" cy="2.01" rx="1.485" ry="2.01" transform="translate(0)" fill="url(#radial-gradient-2)" style="mix-blend-mode: color-dodge;isolation: isolate"/>
      </g>
      <g id="Group_57316" data-name="Group 57316" transform="translate(412.371 174.09)">
        <ellipse id="Ellipse_5840" data-name="Ellipse 5840" cx="1.485" cy="2.01" rx="1.485" ry="2.01" transform="translate(0)" fill="url(#radial-gradient-2)" style="mix-blend-mode: color-dodge;isolation: isolate"/>
      </g>
      <g id="Group_57317" data-name="Group 57317" transform="translate(0 53.238)">
        <rect id="Rectangle_12091" data-name="Rectangle 12091" width="191.137" height="1.069" transform="translate(0)" fill="url(#radial-gradient-40)" style="mix-blend-mode: color-dodge;isolation: isolate"/>
      </g>
      <g id="Group_57318" data-name="Group 57318" transform="translate(189.578 51.762)">
        <ellipse id="Ellipse_5841" data-name="Ellipse 5841" cx="1.485" cy="2.01" rx="1.485" ry="2.01" fill="url(#radial-gradient-2)" style="mix-blend-mode: color-dodge;isolation: isolate"/>
      </g>
      <g id="Group_57319" data-name="Group 57319" transform="translate(0 228.946)">
        <path id="Path_83183" data-name="Path 83183" d="M283.05,30.576,244.37,82.933H85.647L24.378,0H0V1.069H24.051L85.32,84H244.7l38.68-52.357H432.5V30.576Z" fill="url(#radial-gradient-42)" style="mix-blend-mode: color-dodge;isolation: isolate"/>
      </g>
      <g id="Group_57320" data-name="Group 57320" transform="translate(430.938 258.047)">
        <ellipse id="Ellipse_5842" data-name="Ellipse 5842" cx="1.485" cy="2.01" rx="1.485" ry="2.01" fill="url(#radial-gradient-2)" style="mix-blend-mode: color-dodge;isolation: isolate"/>
      </g>
      <g id="Group_57321" data-name="Group 57321" transform="translate(49.38 226.683)">
        <path id="Path_83184" data-name="Path 83184" d="M147.975,54.013H39.345L0,.756.558,0,39.672,52.944H147.648l30.014-40.628H401.374v1.069H177.989Z" fill="url(#radial-gradient-44)" style="mix-blend-mode: color-dodge;isolation: isolate"/>
      </g>
      <g id="Group_57322" data-name="Group 57322" transform="translate(48.227 225.122)">
        <path id="Path_83185" data-name="Path 83185" d="M.435,3.431a2.54,2.54,0,0,1,0-2.843,1.231,1.231,0,0,1,2.1,0,2.54,2.54,0,0,1,0,2.843A1.231,1.231,0,0,1,.435,3.431Z" transform="translate(0)" fill="url(#radial-gradient-45)" style="mix-blend-mode: color-dodge;isolation: isolate"/>
      </g>
      <g id="Group_57323" data-name="Group 57323" transform="translate(449.195 237.523)">
        <ellipse id="Ellipse_5843" data-name="Ellipse 5843" cx="1.485" cy="2.01" rx="1.485" ry="2.01" fill="url(#radial-gradient-2)" style="mix-blend-mode: color-dodge;isolation: isolate"/>
      </g>
      <g id="Group_57324" data-name="Group 57324" transform="translate(93.702 222.244)">
        <rect id="Rectangle_12092" data-name="Rectangle 12092" width="134.567" height="1.069" transform="translate(0)" fill="url(#radial-gradient-47)" style="mix-blend-mode: color-dodge;isolation: isolate"/>
      </g>
      <g id="Group_57325" data-name="Group 57325" transform="translate(92.291 220.77)">
        <ellipse id="Ellipse_5844" data-name="Ellipse 5844" cx="1.485" cy="2.01" rx="1.485" ry="2.01" fill="url(#radial-gradient-2)" style="mix-blend-mode: color-dodge;isolation: isolate"/>
      </g>
      <g id="Group_57326" data-name="Group 57326" transform="translate(226.711 220.769)">
        <path id="Path_83186" data-name="Path 83186" d="M1.485,4.02c.82,0,1.485-.9,1.485-2.01S2.305,0,1.485,0,0,.9,0,2.01.665,4.02,1.485,4.02Z" fill="url(#radial-gradient-49)" style="mix-blend-mode: color-dodge;isolation: isolate"/>
      </g>
    </g>
    <g id="Group_57329" data-name="Group 57329" transform="translate(326.55 40.158) rotate(90)" opacity="0.197">
      <g id="Group_57278-2" data-name="Group 57278" transform="translate(389.498 275.376)">
        <path id="Path_83161-2" data-name="Path 83161" d="M371.794,7.235H319.846l-40.956,58.3H202.424L156.384,0H0V1.069H156.073l46.039,65.537H279.2L320.157,8.3h51.637Z" transform="translate(0)" fill="url(#radial-gradient)" style="mix-blend-mode: color-dodge;isolation: isolate"/>
      </g>
      <g id="Group_57279-2" data-name="Group 57279" transform="translate(388.157 273.901)">
        <ellipse id="Ellipse_5826-2" data-name="Ellipse 5826" cx="1.412" cy="2.01" rx="1.412" ry="2.01" transform="translate(0)" fill="url(#radial-gradient-2)" style="mix-blend-mode: color-dodge;isolation: isolate"/>
      </g>
      <g id="Group_57280-2" data-name="Group 57280" transform="translate(674.316 111.682)">
        <rect id="Rectangle_12089-2" data-name="Rectangle 12089" width="86.976" height="1.069" fill="url(#radial-gradient-3)" style="mix-blend-mode: color-dodge;isolation: isolate"/>
      </g>
      <g id="Group_57281-2" data-name="Group 57281" transform="translate(672.975 110.206)">
        <ellipse id="Ellipse_5827-2" data-name="Ellipse 5827" cx="1.412" cy="2.01" rx="1.412" ry="2.01" fill="url(#radial-gradient-2)" style="mix-blend-mode: color-dodge;isolation: isolate"/>
      </g>
      <g id="Group_57282-2" data-name="Group 57282" transform="translate(659.821 63.221)">
        <path id="Path_83162-2" data-name="Path 83162" d="M101.471,0H31.828L0,45.308l.531.756,31.608-45h69.331Z" fill="url(#radial-gradient-5)" style="mix-blend-mode: color-dodge;isolation: isolate"/>
      </g>
      <g id="Group_57283-2" data-name="Group 57283" transform="translate(658.725 106.827)">
        <path id="Path_83163-2" data-name="Path 83163" d="M.414.589a2.648,2.648,0,0,0,0,2.842,1.141,1.141,0,0,0,2,0,2.648,2.648,0,0,0,0-2.842A1.141,1.141,0,0,0,.414.589Z" transform="translate(0)" fill="url(#radial-gradient-6)" style="mix-blend-mode: color-dodge;isolation: isolate"/>
      </g>
      <g id="Group_57284-2" data-name="Group 57284" transform="translate(388.322 24.061)">
        <path id="Path_83164-2" data-name="Path 83164" d="M372.969,0H226.827L170.4,80.326H124.434l-24.094,34.3H0v1.069H100.651l24.094-34.3h45.966L227.138,1.069H372.969Z" fill="url(#radial-gradient-7)" style="mix-blend-mode: color-dodge;isolation: isolate"/>
      </g>
      <g id="Group_57285-2" data-name="Group 57285" transform="translate(386.981 137.21)">
        <path id="Path_83165-2" data-name="Path 83165" d="M1.412,0C.632,0,0,.9,0,2.01S.632,4.02,1.412,4.02s1.412-.9,1.412-2.01S2.192,0,1.412,0Z" fill="url(#radial-gradient-8)" style="mix-blend-mode: color-dodge;isolation: isolate"/>
      </g>
      <g id="Group_57286-2" data-name="Group 57286" transform="translate(461.291 124.393)">
        <path id="Path_83166-2" data-name="Path 83166" d="M113.565,62.221H0V61.152H113.254L156.212,0h35.3V1.069H156.523Z" fill="url(#radial-gradient-9)" style="mix-blend-mode: color-dodge;isolation: isolate"/>
      </g>
      <g id="Group_57287-2" data-name="Group 57287" transform="translate(651.32 122.917)">
        <path id="Path_83167-2" data-name="Path 83167" d="M1.411,0c.78,0,1.412.9,1.412,2.01S2.191,4.019,1.411,4.019,0,3.119,0,2.01.632,0,1.411,0Z" transform="translate(0)" fill="url(#radial-gradient-10)" style="mix-blend-mode: color-dodge;isolation: isolate"/>
      </g>
      <g id="Group_57288-2" data-name="Group 57288" transform="translate(459.95 184.069)">
        <ellipse id="Ellipse_5828-2" data-name="Ellipse 5828" cx="1.412" cy="2.01" rx="1.412" ry="2.01" fill="url(#radial-gradient-2)" style="mix-blend-mode: color-dodge;isolation: isolate"/>
      </g>
      <g id="Group_57289-2" data-name="Group 57289" transform="translate(701.384 85.022)">
        <rect id="Rectangle_12090-2" data-name="Rectangle 12090" width="59.908" height="1.069" fill="url(#radial-gradient-12)" style="mix-blend-mode: color-dodge;isolation: isolate"/>
      </g>
      <g id="Group_57290-2" data-name="Group 57290" transform="translate(700.043 83.546)">
        <ellipse id="Ellipse_5829-2" data-name="Ellipse 5829" cx="1.412" cy="2.01" rx="1.412" ry="2.01" fill="url(#radial-gradient-2)" style="mix-blend-mode: color-dodge;isolation: isolate"/>
      </g>
      <g id="Group_57291-2" data-name="Group 57291" transform="translate(474.237 239.996)">
        <path id="Path_83168-2" data-name="Path 83168" d="M287.055,0h-40.22L194.461,74.553H123.568L80.316,12.984H0v1.069H80l43.252,61.569h71.515L247.145,1.069h39.909Z" fill="url(#radial-gradient-14)" style="mix-blend-mode: color-dodge;isolation: isolate"/>
      </g>
      <g id="Group_57292-2" data-name="Group 57292" transform="translate(472.896 251.504)">
        <ellipse id="Ellipse_5830-2" data-name="Ellipse 5830" cx="1.412" cy="2.01" rx="1.412" ry="2.01" fill="url(#radial-gradient-2)" style="mix-blend-mode: color-dodge;isolation: isolate"/>
      </g>
      <g id="Group_57293-2" data-name="Group 57293" transform="translate(434.221 142.822)">
        <path id="Path_83169-2" data-name="Path 83169" d="M327.07,3.2,324.823,0H203.289L160.92,60.314H0v1.069H161.231L203.6,1.069H324.512l2.558,3.642Z" transform="translate(0)" fill="url(#radial-gradient-16)" style="mix-blend-mode: color-dodge;isolation: isolate"/>
      </g>
      <g id="Group_57294-2" data-name="Group 57294" transform="translate(432.88 201.662)">
        <ellipse id="Ellipse_5831-2" data-name="Ellipse 5831" cx="1.412" cy="2.01" rx="1.412" ry="2.01" transform="translate(0)" fill="url(#radial-gradient-2)" style="mix-blend-mode: color-dodge;isolation: isolate"/>
      </g>
      <g id="Group_57295-2" data-name="Group 57295" transform="translate(465.998 203.137)">
        <path id="Path_83170-2" data-name="Path 83170" d="M295.293,0H240.95l-42.37,60.314H142.4L120.626,29.321H0V30.39H120.315l21.772,30.994h56.8l42.37-60.315h54.032Z" fill="url(#radial-gradient-18)" style="mix-blend-mode: color-dodge;isolation: isolate"/>
      </g>
      <g id="Group_57296-2" data-name="Group 57296" transform="translate(464.657 230.982)">
        <ellipse id="Ellipse_5832-2" data-name="Ellipse 5832" cx="1.412" cy="2.01" rx="1.412" ry="2.01" fill="url(#radial-gradient-2)" style="mix-blend-mode: color-dodge;isolation: isolate"/>
      </g>
      <g id="Group_57297-2" data-name="Group 57297" transform="translate(618.999 178.007)">
        <path id="Path_83171-2" data-name="Path 83171" d="M30,47.141H0V46.072H29.692L62.057,0h72.961V1.069H62.368Z" fill="url(#radial-gradient-20)" style="mix-blend-mode: color-dodge;isolation: isolate"/>
      </g>
      <g id="Group_57298-2" data-name="Group 57298" transform="translate(752.534 176.531)">
        <path id="Path_83172-2" data-name="Path 83172" d="M1.412,0c.78,0,1.412.9,1.412,2.01S2.192,4.019,1.412,4.019,0,3.119,0,2.01.632,0,1.412,0Z" fill="url(#radial-gradient-10)" style="mix-blend-mode: color-dodge;isolation: isolate"/>
      </g>
      <g id="Group_57299-2" data-name="Group 57299" transform="translate(617.658 222.603)">
        <ellipse id="Ellipse_5833-2" data-name="Ellipse 5833" cx="1.412" cy="2.01" rx="1.412" ry="2.01" fill="url(#radial-gradient-2)" style="mix-blend-mode: color-dodge;isolation: isolate"/>
      </g>
      <g id="Group_57300-2" data-name="Group 57300" transform="translate(421.276 50.681)">
        <path id="Path_83173-2" data-name="Path 83173" d="M340.016,0H220.942L166.8,77.067h-49.43l-22.951,32.67H0v1.069H94.733l22.951-32.67h49.43L221.253,1.069H340.016Z" fill="url(#radial-gradient-23)" style="mix-blend-mode: color-dodge;isolation: isolate"/>
      </g>
      <g id="Group_57301-2" data-name="Group 57301" transform="translate(419.935 158.943)">
        <ellipse id="Ellipse_5834-2" data-name="Ellipse 5834" cx="1.412" cy="2.01" rx="1.412" ry="2.01" fill="url(#radial-gradient-2)" style="mix-blend-mode: color-dodge;isolation: isolate"/>
      </g>
      <g id="Group_57302-2" data-name="Group 57302" transform="translate(354.191)">
        <path id="Path_83174-2" data-name="Path 83174" d="M407.1,0H249.189L201.964,67.225H166.8L137.9,108.376H0v1.069H138.207l28.908-41.151h35.16L249.5,1.069H407.1Z" fill="url(#radial-gradient-25)" style="mix-blend-mode: color-dodge;isolation: isolate"/>
      </g>
      <g id="Group_57303-2" data-name="Group 57303" transform="translate(352.85 106.901)">
        <ellipse id="Ellipse_5835-2" data-name="Ellipse 5835" cx="1.412" cy="2.01" rx="1.412" ry="2.01" fill="url(#radial-gradient-2)" style="mix-blend-mode: color-dodge;isolation: isolate"/>
      </g>
      <g id="Group_57304-2" data-name="Group 57304" transform="translate(0 250.728)">
        <path id="Path_83175-2" data-name="Path 83175" d="M285.325,31.832l-43.547,61.99H71.436L5.527,0H0V1.069H5.216L71.124,94.891H242.089L285.636,32.9h91.481V31.832Z" fill="url(#radial-gradient-27)" style="mix-blend-mode: color-dodge;isolation: isolate"/>
      </g>
      <g id="Group_57305-2" data-name="Group 57305" transform="translate(375.634 281.084)">
        <path id="Path_83176-2" data-name="Path 83176" d="M1.412,4.02c.78,0,1.411-.9,1.411-2.01S2.192,0,1.412,0,0,.9,0,2.01.632,4.02,1.412,4.02Z" fill="url(#radial-gradient-28)" style="mix-blend-mode: color-dodge;isolation: isolate"/>
      </g>
      <g id="Group_57306-2" data-name="Group 57306" transform="translate(0 186.015)">
        <path id="Path_83177-2" data-name="Path 83177" d="M10.9,0,0,15.52v1.512L11.213,1.069h157.83V0Z" fill="url(#radial-gradient-29)" style="mix-blend-mode: color-dodge;isolation: isolate"/>
      </g>
      <g id="Group_57307-2" data-name="Group 57307" transform="translate(167.561 184.54)">
        <ellipse id="Ellipse_5836-2" data-name="Ellipse 5836" cx="1.412" cy="2.01" rx="1.412" ry="2.01" transform="translate(0)" fill="url(#radial-gradient-2)" style="mix-blend-mode: color-dodge;isolation: isolate"/>
      </g>
      <g id="Group_57308-2" data-name="Group 57308" transform="translate(0 149.932)">
        <path id="Path_83178-2" data-name="Path 83178" d="M6.121,0,0,8.714v1.512L6.432,1.069H125.5V0Z" fill="url(#radial-gradient-31)" style="mix-blend-mode: color-dodge;isolation: isolate"/>
      </g>
      <g id="Group_57309-2" data-name="Group 57309" transform="translate(124.015 148.456)">
        <path id="Path_83179-2" data-name="Path 83179" d="M1.411,0c.78,0,1.412.9,1.412,2.01S2.191,4.019,1.411,4.019,0,3.119,0,2.01.632,0,1.411,0Z" transform="translate(0)" fill="url(#radial-gradient-10)" style="mix-blend-mode: color-dodge;isolation: isolate"/>
      </g>
      <g id="Group_57310-2" data-name="Group 57310" transform="translate(0 114.225)">
        <path id="Path_83180-2" data-name="Path 83180" d="M293.051,89.089,271.512,58.429H192.755L151.709,0H18.7L0,26.62v1.512L19.01,1.069H151.4L192.444,59.5H271.2l21.539,30.66H401.832V89.089Z" fill="url(#radial-gradient-33)" style="mix-blend-mode: color-dodge;isolation: isolate"/>
      </g>
      <g id="Group_57311-2" data-name="Group 57311" transform="translate(400.35 201.839)">
        <ellipse id="Ellipse_5837-2" data-name="Ellipse 5837" cx="1.412" cy="2.01" rx="1.412" ry="2.01" transform="translate(0)" fill="url(#radial-gradient-2)" style="mix-blend-mode: color-dodge;isolation: isolate"/>
      </g>
      <g id="Group_57312-2" data-name="Group 57312" transform="translate(0 68.677)">
        <path id="Path_83181-2" data-name="Path 83181" d="M326.2,82.42,309.174,58.183H242.013L201.141,0H34.956L0,49.761v1.512l35.267-50.2H200.83L241.7,59.252h67.161L325.89,83.489h93.6V82.42Z" fill="url(#radial-gradient-35)" style="mix-blend-mode: color-dodge;isolation: isolate"/>
      </g>
      <g id="Group_57313-2" data-name="Group 57313" transform="translate(418.004 149.622)">
        <ellipse id="Ellipse_5838-2" data-name="Ellipse 5838" cx="1.412" cy="2.01" rx="1.412" ry="2.01" fill="url(#radial-gradient-2)" style="mix-blend-mode: color-dodge;isolation: isolate"/>
      </g>
      <g id="Group_57314-2" data-name="Group 57314" transform="translate(38.733 92.028)">
        <path id="Path_83182-2" data-name="Path 83182" d="M354.861,84.606H277.03l-22.2-31.6h-56.25L162.1,1.069H0V0H162.408l36.484,51.936h56.25l22.2,31.6h77.519Z" fill="url(#radial-gradient-37)" style="mix-blend-mode: color-dodge;isolation: isolate"/>
      </g>
      <g id="Group_57315-2" data-name="Group 57315" transform="translate(37.392 90.552)">
        <ellipse id="Ellipse_5839-2" data-name="Ellipse 5839" cx="1.412" cy="2.01" rx="1.412" ry="2.01" transform="translate(0)" fill="url(#radial-gradient-2)" style="mix-blend-mode: color-dodge;isolation: isolate"/>
      </g>
      <g id="Group_57316-2" data-name="Group 57316" transform="translate(392.111 174.09)">
        <ellipse id="Ellipse_5840-2" data-name="Ellipse 5840" cx="1.412" cy="2.01" rx="1.412" ry="2.01" transform="translate(0)" fill="url(#radial-gradient-2)" style="mix-blend-mode: color-dodge;isolation: isolate"/>
      </g>
      <g id="Group_57317-2" data-name="Group 57317" transform="translate(0 53.238)">
        <rect id="Rectangle_12091-2" data-name="Rectangle 12091" width="181.746" height="1.069" transform="translate(0)" fill="url(#radial-gradient-40)" style="mix-blend-mode: color-dodge;isolation: isolate"/>
      </g>
      <g id="Group_57318-2" data-name="Group 57318" transform="translate(180.263 51.762)">
        <ellipse id="Ellipse_5841-2" data-name="Ellipse 5841" cx="1.412" cy="2.01" rx="1.412" ry="2.01" fill="url(#radial-gradient-2)" style="mix-blend-mode: color-dodge;isolation: isolate"/>
      </g>
      <g id="Group_57319-2" data-name="Group 57319" transform="translate(0 228.946)">
        <path id="Path_83183-2" data-name="Path 83183" d="M269.143,30.576l-36.78,52.357H81.439L23.181,0H0V1.069H22.87L81.128,84H232.674l36.78-52.357H411.248V30.576Z" fill="url(#radial-gradient-42)" style="mix-blend-mode: color-dodge;isolation: isolate"/>
      </g>
      <g id="Group_57320-2" data-name="Group 57320" transform="translate(409.765 258.047)">
        <ellipse id="Ellipse_5842-2" data-name="Ellipse 5842" cx="1.412" cy="2.01" rx="1.412" ry="2.01" fill="url(#radial-gradient-2)" style="mix-blend-mode: color-dodge;isolation: isolate"/>
      </g>
      <g id="Group_57321-2" data-name="Group 57321" transform="translate(46.954 226.683)">
        <path id="Path_83184-2" data-name="Path 83184" d="M140.7,54.013H37.412L0,.756.531,0,37.723,52.944h102.67l28.54-40.628H381.654v1.069H169.244Z" fill="url(#radial-gradient-44)" style="mix-blend-mode: color-dodge;isolation: isolate"/>
      </g>
      <g id="Group_57322-2" data-name="Group 57322" transform="translate(45.858 225.122)">
        <path id="Path_83185-2" data-name="Path 83185" d="M.414,3.431a2.65,2.65,0,0,1,0-2.843,1.141,1.141,0,0,1,2,0,2.65,2.65,0,0,1,0,2.843A1.141,1.141,0,0,1,.414,3.431Z" transform="translate(0)" fill="url(#radial-gradient-45)" style="mix-blend-mode: color-dodge;isolation: isolate"/>
      </g>
      <g id="Group_57323-2" data-name="Group 57323" transform="translate(427.125 237.523)">
        <ellipse id="Ellipse_5843-2" data-name="Ellipse 5843" cx="1.412" cy="2.01" rx="1.412" ry="2.01" fill="url(#radial-gradient-2)" style="mix-blend-mode: color-dodge;isolation: isolate"/>
      </g>
      <g id="Group_57324-2" data-name="Group 57324" transform="translate(89.099 222.244)">
        <rect id="Rectangle_12092-2" data-name="Rectangle 12092" width="127.956" height="1.069" transform="translate(0)" fill="url(#radial-gradient-47)" style="mix-blend-mode: color-dodge;isolation: isolate"/>
      </g>
      <g id="Group_57325-2" data-name="Group 57325" transform="translate(87.757 220.77)">
        <ellipse id="Ellipse_5844-2" data-name="Ellipse 5844" cx="1.412" cy="2.01" rx="1.412" ry="2.01" fill="url(#radial-gradient-2)" style="mix-blend-mode: color-dodge;isolation: isolate"/>
      </g>
      <g id="Group_57326-2" data-name="Group 57326" transform="translate(215.572 220.769)">
        <path id="Path_83186-2" data-name="Path 83186" d="M1.412,4.02c.78,0,1.412-.9,1.412-2.01S2.192,0,1.412,0,0,.9,0,2.01.632,4.02,1.412,4.02Z" fill="url(#radial-gradient-49)" style="mix-blend-mode: color-dodge;isolation: isolate"/>
      </g>
    </g>
    <rect id="Black_Patch" data-name="Black Patch" width="477" height="289" transform="translate(404 151)" fill="#1a1a1a"/>
    <g transform="matrix(1, 0, 0, 1, 0, 0)" filter="url(#Path_83333)">
      <path id="Path_83333-2" data-name="Path 83333" d="M12.479-.027,139.961,6.411a15.217,15.217,0,0,1,13.8,14.263l-2.416,122.784c.359,7.429-5.239,13.089-12.5,12.641L19.671,148.753a15.217,15.217,0,0,1-13.8-14.263L-.025,12.614C-.384,5.185,5.214-.475,12.479-.027Z" transform="matrix(0.97, -0.26, 0.26, 0.97, -111.61, 244.96)" fill="url(#linear-gradient)"/>
    </g>
    <g transform="matrix(1, 0, 0, 1, 0, 0)" filter="url(#Ellipse_5797)">
      <ellipse id="Ellipse_5797-2" data-name="Ellipse 5797" cx="88" cy="87" rx="88" ry="87" transform="translate(1207 509)" fill="url(#linear-gradient-2)"/>
    </g>
  </g>
</svg>
