<?xml version="1.0" encoding="UTF-8"?>
<svg xmlns="http://www.w3.org/2000/svg" xmlns:xlink="http://www.w3.org/1999/xlink" width="54px" height="60px" viewBox="0 0 54 60" version="1.1">
    <!-- Generator: Sketch 52.6 (67491) - http://www.bohemiancoding.com/sketch -->
    <title>049 - Time Limited Sale</title>
    <desc>Created with Sketch.</desc>
    <g id="Page-1" stroke="none" stroke-width="1" fill="none" fill-rule="evenodd">
        <g id="049---Time-Limited-Sale" transform="translate(0.000000, -1.000000)">
            <g id="Icons_copy" transform="translate(1.000000, 2.000000)">
                <circle id="Oval" fill="#48BDFF" cx="26" cy="18" r="18"/>
                <path d="M26,0 C25.494,0 25,0.035 24.5,0.076 C33.8272756,0.846169734 41.0049834,8.64098126 41.0049834,18 C41.0049834,27.3590187 33.8272756,35.1538303 24.5,35.924 C25,35.965 25.494,36 26,36 C35.9411254,35.9999999 43.9999997,27.9411254 43.9999997,18 C43.9999997,8.05887461 35.9411254,1.48134311e-07 26,0 Z" id="Path" fill="#2C98F6"/>
                <rect id="Rectangle" fill="#FFDC00" x="0" y="34" width="52" height="24" rx="2"/>
                <path d="M50,34 L47,34 C48.1045695,34 49,34.8954305 49,36 L49,56 C49,57.1045695 48.1045695,58 47,58 L50,58 C51.1045695,58 52,57.1045695 52,56 L52,36 C52,34.8954305 51.1045695,34 50,34 Z" id="Path" fill="#FF8401"/>
            </g>
            <g id="Icons_copy_2" transform="translate(1.000000, 2.000000)" fill="#FFFFFF">
                <path d="M11,18 C11.0026577,8.64386452 18.1760495,0.851387237 27.5,0.076 C27,0.035 26.506,0 26,0 C25.494,0 25,0.035 24.5,0.076 C16.4973419,0.738070978 9.9034478,6.62556733 8.34265881,14.5024203 C6.78186982,22.3792733 10.6324811,30.3363359 17.778,34 L20.778,34 C14.776449,30.9219555 11.001464,24.7448477 11,18 Z" id="Path"/>
                <path d="M3,56 L3,36 C3,34.8954305 3.8954305,34 5,34 L2,34 C0.8954305,34 0,34.8954305 0,36 L0,56 C0,57.1045695 0.8954305,58 2,58 L5,58 C3.8954305,58 3,57.1045695 3,56 Z" id="Path"/>
            </g>
            <g id="Icons">
                <path d="M9.863,11.836 L11.663,12.697 C10.5744381,14.9780567 10.0064119,17.4725219 10,20 L8,20 C8.0084656,17.1742489 8.64480521,14.3856946 9.863,11.836 Z" id="Path" fill="#FFFFFF"/>
                <path d="M10.5,43 C11.7367154,42.8820834 12.8435665,43.7675642 13,45 C13,45.5522847 13.4477153,46 14,46 C14.5522847,46 15,45.5522847 15,45 C14.8514506,42.657885 12.8433786,40.8729321 10.5,41 C8.15662139,40.8729321 6.14854937,42.657885 6,45 C6.14854937,47.342115 8.15662139,49.1270679 10.5,49 C11.7367154,48.8820834 12.8435665,49.7675642 13,51 C12.8435665,52.2324358 11.7367154,53.1179166 10.5,53 C9.26328459,53.1179166 8.15643353,52.2324358 8,51 C8,50.4477153 7.55228475,50 7,50 C6.44771525,50 6,50.4477153 6,51 C6.14854937,53.342115 8.15662139,55.1270679 10.5,55 C12.8433786,55.1270679 14.8514506,53.342115 15,51 C14.8514506,48.657885 12.8433786,46.8729321 10.5,47 C9.26328459,47.1179166 8.15643353,46.2324358 8,45 C8.15643353,43.7675642 9.26328459,42.8820834 10.5,43 Z" id="Path" fill="#000000"/>
                <path d="M24.593,49.617 L24.593,49.608 L21.951,41.684 C21.8161164,41.2736255 21.4329732,40.9962499 21.001,40.9962499 C20.5690268,40.9962499 20.1858836,41.2736255 20.051,41.684 L17.41,49.608 L17.41,49.617 L16.055,53.684 C15.880478,54.2086705 16.1643295,54.775478 16.689,54.95 C17.2136705,55.1245219 17.780478,54.8406705 17.955,54.316 L19.054,51 L22.946,51 L24.052,54.316 C24.1648959,54.6554023 24.450285,54.9087937 24.800664,54.9807242 C25.151043,55.0526546 25.513181,54.9321961 25.750664,54.6647242 C25.9881471,54.3972523 26.0648959,54.0234023 25.952,53.684 L24.593,49.617 Z M19.721,49 L21,45.162 L22.279,49 L19.721,49 Z" id="Shape" fill="#000000" fill-rule="nonzero"/>
                <path d="M34,53 L30,53 L30,42 C30,41.4477153 29.5522847,41 29,41 C28.4477153,41 28,41.4477153 28,42 L28,54 C28,54.5522847 28.4477153,55 29,55 L34,55 C34.5522847,55 35,54.5522847 35,54 C35,53.4477153 34.5522847,53 34,53 Z" id="Path" fill="#000000"/>
                <path d="M43,43 C43.5522847,43 44,42.5522847 44,42 C44,41.4477153 43.5522847,41 43,41 L38,41 C37.4477153,41 37,41.4477153 37,42 L37,54 C37,54.5522847 37.4477153,55 38,55 L43,55 C43.5522847,55 44,54.5522847 44,54 C44,53.4477153 43.5522847,53 43,53 L39,53 L39,49 L43,49 C43.5522847,49 44,48.5522847 44,48 C44,47.4477153 43.5522847,47 43,47 L39,47 L39,43 L43,43 Z" id="Path" fill="#000000"/>
                <path d="M51,35 L3,35 C1.34314575,35 0,36.3431458 0,38 L0,58 C0,59.6568542 1.34314575,61 3,61 L51,61 C52.6568542,61 54,59.6568542 54,58 L54,38 C54,36.3431458 52.6568542,35 51,35 Z M52,58 C52,58.5522847 51.5522847,59 51,59 L3,59 C2.44771525,59 2,58.5522847 2,58 L2,38 C2,37.4477153 2.44771525,37 3,37 L51,37 C51.5522847,37 52,37.4477153 52,38 L52,58 Z" id="Shape" fill="#000000" fill-rule="nonzero"/>
                <path d="M27,6 C26.4477153,6 26,6.44771525 26,7 L26,20 C26.0000566,20.2651948 26.1054506,20.5195073 26.293,20.707 L32.793,27.207 C33.1853789,27.5859722 33.8090848,27.5805524 34.1948186,27.1948186 C34.5805524,26.8090848 34.5859722,26.1853789 34.207,25.793 L28,19.586 L28,7 C28,6.44771525 27.5522847,6 27,6 Z" id="Path" fill="#000000"/>
                <path d="M47,41 C46.4477153,41 46,41.4477153 46,42 L46,50 C46,50.5522847 46.4477153,51 47,51 C47.5522847,51 48,50.5522847 48,50 L48,42 C48,41.4477153 47.5522847,41 47,41 Z" id="Path" fill="#000000"/>
                <circle id="Oval" fill="#000000" cx="47" cy="54" r="1"/>
                <path d="M9.47,17.028 C8.91771526,17.0307614 8.46776146,16.5852847 8.46500004,16.033 C8.46223861,15.4807153 8.90771526,15.0307614 9.46,15.028 L9.47,15.028 C10.0222847,15.028 10.47,15.4757153 10.47,16.028 C10.47,16.5802847 10.0222847,17.028 9.47,17.028 Z" id="Path" fill="#000000"/>
                <path d="M8,20 C8.00174895,24.6741007 9.72634768,29.183549 12.844,32.666 C13.0819389,32.9325201 13.4439903,33.051856 13.7937729,32.979055 C14.1435556,32.9062539 14.4279292,32.6523761 14.5397729,32.313055 C14.6516167,31.9737338 14.5739389,31.6005201 14.336,31.334 C11.5455439,28.2180787 10.0017751,24.1827751 10,20 C10,19.4477153 9.55228475,19 9,19 C8.44771525,19 8,19.4477153 8,20 Z" id="Path" fill="#000000"/>
                <path d="M39.744,32.746 C39.9418473,32.9226433 40.2017651,33.0134527 40.4665694,32.9984497 C40.7313737,32.9834466 40.979371,32.86386 41.156,32.666 C47.490566,25.610098 47.6476519,14.9622162 41.5239857,7.72252054 C35.4003195,0.482824919 24.8738825,-1.12844381 16.865,3.948 C15.3521891,4.89552168 13.9855013,6.05840219 12.808,7.4 C11.6120837,8.72541519 10.619595,10.2210568 9.863,11.838 C9.73447769,12.0775752 9.71403818,12.3605396 9.80679522,12.6160986 C9.89955226,12.8716576 10.0967312,13.0756358 10.349,13.177 C10.8462466,13.376402 11.413947,13.1706698 11.668,12.699 C12.3427582,11.2510815 13.2298662,9.91199337 14.3,8.726 C15.353475,7.52493011 16.5771174,6.48456457 17.932,5.638 C25.0989402,1.10229158 34.5132355,2.54772717 39.989345,9.02460199 C45.4654544,15.5014768 45.3253135,25.0250582 39.661,31.338 C39.2966098,31.7502468 39.3336989,32.3794204 39.744,32.746 Z" id="Path" fill="#000000"/>
            </g>
        </g>
    </g>
</svg>
