<?xml version="1.0" encoding="UTF-8" standalone="no"?> <svg width="64" height="64" viewBox="0 0 64 64" fill="none" xmlns="http://www.w3.org/2000/svg">
<path d="M27 21H37C38.5913 21 40.1174 21.6321 41.2426 22.7574C42.3679 23.8826 43 25.4087 43 27V35H21V27C21 25.4087 21.6321 23.8826 22.7574 22.7574C23.8826 21.6321 25.4087 21 27 21V21Z" fill="#57B7EB"/>
<path d="M43 33V35H21V27C21 25.4087 21.6321 23.8826 22.7574 22.7574C23.8826 21.6321 25.4087 21 27 21H28V27C28 30.866 31.134 33 35 33H43Z" fill="#4891D3"/>
<path d="M35 3H29C25.6863 3 23 5.68629 23 9C23 12.3137 25.6863 15 29 15H35C38.3137 15 41 12.3137 41 9C41 5.68629 38.3137 3 35 3Z" fill="#4891D3"/>
<path d="M40.29 11.84C40.0099 12.3552 39.6561 12.8268 39.24 13.24C38.6852 13.7998 38.0247 14.2437 37.2968 14.5459C36.5689 14.848 35.7881 15.0024 35 15H29C27.4087 15 25.8826 14.3679 24.7574 13.2426C23.6321 12.1174 23 10.5913 23 9C23.0024 7.40943 23.6353 5.88469 24.76 4.75999C25.8847 3.63529 27.4094 3.00238 29 3H32.05C32.0131 3.16402 31.9963 3.33192 32 3.5C32 5.6 34.23 7.36 37.25 7.86C37.7381 7.9372 38.1826 8.18613 38.5034 8.56197C38.8242 8.9378 39.0003 9.41584 39 9.91C38.9987 10.1848 39.052 10.4571 39.1567 10.7111C39.2614 10.9652 39.4155 11.1959 39.61 11.39C39.8028 11.5858 40.0344 11.739 40.29 11.84V11.84Z" fill="#2D72BC"/>
<path d="M26 31H21V35H26V31Z" fill="#F9E109"/>
<path d="M35 22L32 25L29 22V19H35V22Z" fill="#FCBC04"/>
<path d="M35 20.47C34.0613 21.3103 32.8826 21.8349 31.63 21.97C32.3623 22.4666 33.1957 22.7944 34.07 22.93L32 25L29 22V19H35V20.47Z" fill="#E59730"/>
<path d="M32 21C30.4087 21 28.8826 20.3679 27.7574 19.2426C26.6321 18.1174 26 16.5913 26 15V10H27.172C28.0687 10.0001 28.9566 9.82349 29.785 9.48032C30.6134 9.13715 31.3661 8.63413 32 8V8C32.6339 8.63413 33.3866 9.13715 34.215 9.48032C35.0434 9.82349 35.9313 10.0001 36.828 10H38V15C38 16.5913 37.3679 18.1174 36.2426 19.2426C35.1174 20.3679 33.5913 21 32 21Z" fill="#F9E109"/>
<path d="M28 11.94V13C28.0002 14.064 28.2833 15.1087 28.8203 16.0273C29.3573 16.9458 30.1289 17.7049 31.056 18.227C31.9831 18.7491 33.0323 19.0152 34.0961 18.9982C35.16 18.9811 36.2001 18.6815 37.11 18.13C36.4287 19.246 35.4012 20.1086 34.1841 20.5863C32.967 21.0641 31.6271 21.1307 30.3686 20.7762C29.1101 20.4216 28.002 19.6653 27.2133 18.6225C26.4246 17.5796 25.9985 16.3075 26 15V10H27.17C28.9814 9.9997 30.7186 9.28035 32 8C33.2814 9.28035 35.0186 9.9997 36.83 10H38V12H36.83C35.0186 11.9997 33.2814 11.2804 32 10C30.922 11.0771 29.5132 11.7604 28 11.94Z" fill="#FCBC04"/>
<path d="M38 28V33H36V30C36 29.4696 36.2107 28.9609 36.5858 28.5858C36.9609 28.2107 37.4696 28 38 28Z" fill="#4891D3"/>
<path d="M26 31V35H24V34C23.9984 33.4701 23.7872 32.9623 23.4125 32.5875C23.0377 32.2128 22.5299 32.0016 22 32H21V31H26Z" fill="#FCBC04"/>
<path d="M38 35H43V31H38V35Z" fill="#F9E109"/>
<path d="M38 31V35H40V34C40.0016 33.4701 40.2128 32.9623 40.5875 32.5875C40.9623 32.2128 41.4701 32.0016 42 32H43V31H38Z" fill="#FCBC04"/>
<path d="M30 15C30.5523 15 31 14.5523 31 14C31 13.4477 30.5523 13 30 13C29.4477 13 29 13.4477 29 14C29 14.5523 29.4477 15 30 15Z" fill="#2D72BC"/>
<path d="M34 15C34.5523 15 35 14.5523 35 14C35 13.4477 34.5523 13 34 13C33.4477 13 33 13.4477 33 14C33 14.5523 33.4477 15 34 15Z" fill="#2D72BC"/>
<path d="M50 17H45C44.7348 17 44.4804 16.8946 44.2929 16.7071C44.1054 16.5196 44 16.2652 44 16C44 15.7348 44.1054 15.4804 44.2929 15.2929C44.4804 15.1054 44.7348 15 45 15H50C50.2652 15 50.5196 15.1054 50.7071 15.2929C50.8946 15.4804 51 15.7348 51 16C51 16.2652 50.8946 16.5196 50.7071 16.7071C50.5196 16.8946 50.2652 17 50 17Z" fill="#F9E109"/>
<path d="M43 13.0001C42.7744 13.0005 42.5554 12.9247 42.3784 12.7849C42.2013 12.6451 42.0768 12.4496 42.0249 12.2301C41.973 12.0106 41.9968 11.78 42.0925 11.5758C42.1882 11.3716 42.3501 11.2057 42.552 11.1051L46.552 9.10505C46.6695 9.04635 46.7975 9.01137 46.9285 9.00212C47.0596 8.99286 47.1912 9.00951 47.3158 9.05111C47.4404 9.09271 47.5556 9.15845 47.6548 9.24457C47.754 9.3307 47.8353 9.43552 47.894 9.55305C47.9527 9.67058 47.9877 9.79853 47.9969 9.92958C48.0062 10.0606 47.9895 10.1922 47.9479 10.3168C47.9063 10.4415 47.8406 10.5567 47.7545 10.6559C47.6683 10.7551 47.5635 10.8364 47.446 10.8951L43.446 12.8951C43.3074 12.9641 43.1548 13 43 13.0001V13.0001Z" fill="#F9E109"/>
<path d="M47 23.0001C46.8452 23 46.6926 22.9641 46.554 22.8951L42.554 20.8951C42.3167 20.7765 42.1361 20.5685 42.0521 20.3168C41.9681 20.0652 41.9875 19.7904 42.106 19.5531C42.2246 19.3157 42.4326 19.1351 42.6842 19.0511C42.9359 18.9671 43.2107 18.9865 43.448 19.1051L47.448 21.1051C47.6499 21.2057 47.8118 21.3716 47.9075 21.5758C48.0032 21.78 48.027 22.0106 47.9751 22.2301C47.9232 22.4496 47.7987 22.6451 47.6217 22.7849C47.4446 22.9247 47.2256 23.0005 47 23.0001Z" fill="#F9E109"/>
<path d="M19 17H14C13.7348 17 13.4804 16.8946 13.2929 16.7071C13.1054 16.5196 13 16.2652 13 16C13 15.7348 13.1054 15.4804 13.2929 15.2929C13.4804 15.1054 13.7348 15 14 15H19C19.2652 15 19.5196 15.1054 19.7071 15.2929C19.8946 15.4804 20 15.7348 20 16C20 16.2652 19.8946 16.5196 19.7071 16.7071C19.5196 16.8946 19.2652 17 19 17Z" fill="#F9E109"/>
<path d="M21 13.0001C20.8452 13 20.6926 12.9641 20.554 12.8951L16.554 10.8951C16.4365 10.8364 16.3317 10.7551 16.2456 10.6559C16.1594 10.5567 16.0937 10.4415 16.0521 10.3168C16.0105 10.1922 15.9938 10.0606 16.0031 9.92958C16.0124 9.79853 16.0473 9.67058 16.106 9.55305C16.1647 9.43552 16.246 9.3307 16.3452 9.24457C16.4444 9.15845 16.5596 9.09271 16.6842 9.05111C16.8089 9.00951 16.9404 8.99286 17.0715 9.00212C17.2025 9.01137 17.3305 9.04635 17.448 9.10505L21.448 11.1051C21.6499 11.2057 21.8118 11.3716 21.9075 11.5758C22.0032 11.78 22.027 12.0106 21.9751 12.2301C21.9232 12.4496 21.7987 12.6451 21.6217 12.7849C21.4446 12.9247 21.2256 13.0005 21 13.0001Z" fill="#F9E109"/>
<path d="M17 23.0001C16.7744 23.0005 16.5554 22.9247 16.3784 22.7849C16.2013 22.6451 16.0768 22.4496 16.0249 22.2301C15.973 22.0106 15.9968 21.78 16.0925 21.5758C16.1882 21.3716 16.3501 21.2057 16.552 21.1051L20.552 19.1051C20.6695 19.0464 20.7975 19.0114 20.9285 19.0021C21.0596 18.9929 21.1912 19.0095 21.3158 19.0511C21.4404 19.0927 21.5556 19.1585 21.6548 19.2446C21.754 19.3307 21.8353 19.4355 21.894 19.5531C21.9527 19.6706 21.9877 19.7985 21.9969 19.9296C22.0062 20.0606 21.9895 20.1922 21.9479 20.3168C21.9063 20.4415 21.8406 20.5567 21.7545 20.6559C21.6683 20.7551 21.5635 20.8364 21.446 20.8951L17.446 22.8951C17.3074 22.9641 17.1548 23 17 23.0001V23.0001Z" fill="#F9E109"/>
<path d="M61 21.6001V34.7201C61.0003 37.589 60.0509 40.3774 58.3 42.6501L49.36 54.2801C48.6365 55.2231 48.165 56.3349 47.9901 57.5106C47.8151 58.6863 47.9424 59.8872 48.36 61.0001H32.17C32.3005 58.041 32.8079 55.1107 33.68 52.2801L34.38 50.0101C35.2376 47.3155 36.7653 44.8828 38.82 42.9401L43.57 38.1901C44.0104 37.728 44.6054 37.4442 45.2416 37.3925C45.8778 37.3409 46.5108 37.5251 47.02 37.9101C47.2919 38.1309 47.5143 38.4063 47.6729 38.7186C47.8315 39.0309 47.9227 39.373 47.9406 39.7228C47.9585 40.0726 47.9027 40.4222 47.7769 40.749C47.651 41.0759 47.4579 41.3726 47.21 41.6201L54.64 34.2001L55.79 21.4901C55.8381 20.8473 56.1146 20.243 56.5694 19.7863C57.0243 19.3297 57.6275 19.0508 58.27 19.0001C58.6218 18.9843 58.9731 19.0398 59.3029 19.1632C59.6327 19.2866 59.9341 19.4754 60.1891 19.7183C60.4441 19.9611 60.6473 20.253 60.7867 20.5764C60.926 20.8997 60.9986 21.2479 61 21.6001V21.6001Z" fill="#F9E109"/>
<path d="M41.98 54C42.918 54.0012 43.8433 53.783 44.682 53.3628C45.5206 52.9426 46.2494 52.3321 46.81 51.58L53.13 43.16C55.6527 39.7987 57.1088 35.7579 57.31 31.56L57.9 19.05L57.911 19.037C58.2874 18.9684 58.6742 18.983 59.0444 19.0799C59.4145 19.1768 59.7589 19.3536 60.0534 19.598C60.3478 19.8423 60.5852 20.1481 60.7487 20.494C60.9122 20.8399 60.998 21.2174 61 21.6V34.72C61.0003 37.589 60.0509 40.3774 58.3 42.65L49.36 54.28C48.6365 55.2231 48.165 56.3349 47.9901 57.5106C47.8151 58.6863 47.9424 59.8872 48.36 61H32.17C32.1826 60.706 32.1993 60.412 32.22 60.118C32.2872 59.1189 32.5676 58.1457 33.0423 57.2639C33.517 56.3822 34.1749 55.6123 34.9719 55.006C35.7689 54.3997 36.6865 53.971 37.663 53.7489C38.6394 53.5267 39.6521 53.5162 40.633 53.718L41.98 54Z" fill="#FCBC04"/>
<path d="M47.211 38.085C46.9779 37.8509 46.7003 37.6656 46.3947 37.5401C46.089 37.4146 45.7614 37.3513 45.431 37.354C45.795 37.8331 45.9732 38.4278 45.9328 39.0282C45.8923 39.6285 45.636 40.194 45.211 40.62L41.2 44.631C40.8024 45.0289 40.579 45.5684 40.579 46.131C40.579 46.6935 40.8024 47.2331 41.2 47.631L47.21 41.62C47.6788 41.1513 47.9423 40.5156 47.9425 39.8527C47.9427 39.1898 47.6796 38.5539 47.211 38.085V38.085Z" fill="#FCBC04"/>
<path d="M3 21.6001V34.7201C2.99967 37.589 3.94905 40.3774 5.7 42.6501L14.64 54.2801C15.3635 55.2231 15.835 56.3349 16.0099 57.5106C16.1849 58.6863 16.0576 59.8872 15.64 61.0001H31.83C31.6995 58.041 31.1921 55.1107 30.32 52.2801L29.62 50.0101C28.7624 47.3155 27.2347 44.8828 25.18 42.9401L20.43 38.1901C19.9896 37.728 19.3946 37.4442 18.7584 37.3925C18.1221 37.3409 17.4892 37.5251 16.98 37.9101C16.7081 38.1309 16.4857 38.4063 16.3271 38.7186C16.1685 39.0309 16.0773 39.373 16.0594 39.7228C16.0415 40.0726 16.0973 40.4222 16.2231 40.749C16.349 41.0759 16.5421 41.3726 16.79 41.6201L9.36 34.2001L8.21 21.4901C8.16187 20.8473 7.8854 20.243 7.43056 19.7863C6.97573 19.3297 6.37253 19.0508 5.73 19.0001C5.37823 18.9843 5.0269 19.0398 4.69712 19.1632C4.36733 19.2866 4.0659 19.4754 3.81091 19.7183C3.55593 19.9611 3.35265 20.253 3.2133 20.5764C3.07395 20.8997 3.0014 21.2479 3 21.6001V21.6001Z" fill="#F9E109"/>
<path d="M22.02 54C21.082 54.0012 20.1567 53.783 19.318 53.3628C18.4794 52.9426 17.7506 52.3321 17.19 51.58L10.87 43.16C8.34733 39.7987 6.89121 35.7579 6.69 31.56L6.1 19.05L6.089 19.037C5.71261 18.9684 5.32574 18.983 4.95561 19.0799C4.58548 19.1768 4.24108 19.3536 3.94663 19.598C3.65218 19.8423 3.41483 20.1481 3.25129 20.494C3.08774 20.8399 3.00197 21.2174 3 21.6V34.72C2.99967 37.589 3.94905 40.3774 5.7 42.65L14.64 54.28C15.3635 55.2231 15.835 56.3349 16.0099 57.5106C16.1849 58.6863 16.0576 59.8872 15.64 61H31.83C31.8173 60.706 31.8007 60.412 31.78 60.118C31.7128 59.1189 31.4324 58.1457 30.9577 57.2639C30.483 56.3822 29.8251 55.6123 29.0281 55.006C28.2311 54.3997 27.3135 53.971 26.337 53.7489C25.3606 53.5267 24.3479 53.5162 23.367 53.718L22.02 54Z" fill="#FCBC04"/>
<path d="M16.789 38.085C17.0221 37.8509 17.2997 37.6656 17.6053 37.5401C17.911 37.4146 18.2386 37.3513 18.569 37.354C18.205 37.8331 18.0268 38.4278 18.0672 39.0282C18.1076 39.6285 18.364 40.194 18.789 40.62L22.799 44.631C23.1966 45.0289 23.42 45.5684 23.42 46.131C23.42 46.6935 23.1966 47.2331 22.799 47.631L16.789 41.62C16.3203 41.1511 16.057 40.5154 16.057 39.8525C16.057 39.1896 16.3203 38.5538 16.789 38.085Z" fill="#FCBC04"/>
</svg>
