<?xml version="1.0" encoding="UTF-8" standalone="no"?> <svg id="Layer_1" data-name="Layer 1" xmlns="http://www.w3.org/2000/svg" viewBox="0 0 64 64"><circle cx="32" cy="49" r="3" style="fill:#515f73"/><polygon points="55.778 30 48 30 48 25 24 25 24 49 62 49 62 37.917 55.778 30" style="fill:#d98286"/><path d="M55.778,30H48V25H45V44a2,2,0,0,1-2,2H24v3H62V37.917Z" style="fill:#bf7376"/><polygon points="48 30 55.778 30 62 37.917 62 49 48 49 48 30" style="fill:#d9e1e6"/><path d="M55.778,30h-.642l3.436,4.373A2,2,0,0,1,59,35.609V44a2,2,0,0,1-2,2H48v3H62V37.917Z" style="fill:#c0c8cc"/><rect x="4" y="16" width="36" height="40" style="fill:#7083a6"/><rect x="8" y="29" width="28" height="23" transform="translate(44 81) rotate(-180)" style="fill:#c9e6fb"/><polygon points="62 37.92 62 38 53 38 53 30 55.78 30 62 37.92" style="fill:#c9e6fb"/><path d="M40,15h-.819l.808,2.022a.855.855,0,0,1-.845.978.858.858,0,0,1-.823-.624,2.926,2.926,0,0,0-.1-.3l-.678-1.708c-.005-.022-.008-.043-.014-.064-.029-.1-.063-.2-.1-.3H30.944l.826,2.085a.833.833,0,0,1-.84.915.851.851,0,0,1-.821-.626L30,16.993a8.152,8.152,0,0,0,0-1.993H23.9l.166.668a2.083,2.083,0,1,1-4.136,0L20.1,15H13.992a8.143,8.143,0,0,0,0,1.992l-.109.391A.848.848,0,0,1,13.07,18a.833.833,0,0,1-.84-.915L13.056,15H6.573c-.038.1-.072.2-.1.3-.006.021-.009.042-.014.064L5.78,17.072a2.926,2.926,0,0,0-.1.3A.858.858,0,0,1,4.856,18a.855.855,0,0,1-.845-.978L4.819,15H4v8.945A7.14,7.14,0,0,0,4.856,24a6.839,6.839,0,0,0,4.105-1.375,6.81,6.81,0,0,0,8.366-.124,8.035,8.035,0,0,0,9.347,0,6.809,6.809,0,0,0,8.365.124A6.839,6.839,0,0,0,39.144,24,7.14,7.14,0,0,0,40,23.945Z" style="fill:#5f6f8c"/><path d="M55.78,30h-2.4l3.411,4.386A1,1,0,0,1,56,36H53v2h9v-.08Z" style="fill:#b0dcfb"/><circle cx="55" cy="49" r="3.5" style="fill:#6c7e99"/><path d="M42.86,17.11,42.82,17,39.21,8H4.79L1.18,17l-.04.11a3.856,3.856,0,0,0,7.43,2.07l.76-1.91a.453.453,0,0,1,.03-.16L9.4,17h.03l-.1.27a3.846,3.846,0,0,0,7.45,1.91l.29-1.04a5.078,5.078,0,0,0,9.86,0l.29,1.04a3.846,3.846,0,0,0,7.45-1.91l-.1-.27h.03l.04.11a.453.453,0,0,1,.03.16l.76,1.91a3.856,3.856,0,0,0,7.43-2.07Z" style="fill:#7cb2f8"/><path d="M39.14,22a3.844,3.844,0,0,1-3.71-2.82l-.76-1.91a.453.453,0,0,0-.03-.16L34.6,17h8.22l.04.11A3.861,3.861,0,0,1,39.14,22Z" style="fill:#6ea0de"/><path d="M30.93,22a3.844,3.844,0,0,1-3.71-2.82l-.29-1.04A5.394,5.394,0,0,0,27.08,17h7.49l.1.27A3.841,3.841,0,0,1,30.93,22Z" style="fill:#c0c8cc"/><path d="M27.08,17a5.394,5.394,0,0,1-.15,1.14,5.078,5.078,0,0,1-9.86,0A5.394,5.394,0,0,1,16.92,17Z" style="fill:#6ea0de"/><path d="M17.07,18.14l-.29,1.04a3.846,3.846,0,0,1-7.45-1.91l.1-.27h7.49A5.394,5.394,0,0,0,17.07,18.14Z" style="fill:#c0c8cc"/><path d="M9.4,17l-.04.11a.453.453,0,0,0-.03.16l-.76,1.91a3.856,3.856,0,0,1-7.43-2.07L1.18,17Z" style="fill:#6ea0de"/><path d="M34.57,17H27.08a4.814,4.814,0,0,0-.07-.92L25,8h6Z" style="fill:#d9e1e6"/><path d="M19,8l-2.01,8.08a4.814,4.814,0,0,0-.07.92H9.43L13,8Z" style="fill:#d9e1e6"/><path d="M63,22H57.414l1.293-1.293-1.414-1.414-3,3a1,1,0,0,0,0,1.414l3,3,1.414-1.414L57.414,24H63Z" style="fill:#a2bfe6"/><path d="M34,29V48a2,2,0,0,1-2,2H8v2H36V29Z" style="fill:#b0dcfb"/><rect x="20" y="36" width="8" height="8" transform="translate(48 80) rotate(-180)" style="fill:#ffca5e"/><rect x="14" y="44" width="8" height="8" transform="translate(36 96) rotate(-180)" style="fill:#cd9f4c"/><polygon points="25 39 24 38 23 39 23 36 25 36 25 39" style="fill:#ffe5b2"/><polygon points="19 47 18 46 17 47 17 44 19 44 19 47" style="fill:#ffe5b2"/><path d="M20,43.8V44h8V36h-.2A10.009,10.009,0,0,1,20,43.8Z" style="fill:#e6b655"/><path d="M14,51.8V52h8V44h-.2A10.009,10.009,0,0,1,14,51.8Z" style="fill:#b38a42"/><rect x="22" y="44" width="8" height="8" transform="translate(52 96) rotate(-180)" style="fill:#e6b155"/><polygon points="27 47 26 46 25 47 25 44 27 44 27 47" style="fill:#ffe5b2"/><path d="M22,51.8V52h8V44h-.2A10.009,10.009,0,0,1,22,51.8Z" style="fill:#cc9d4b"/></svg>