<?xml version="1.0" encoding="UTF-8"?>
<svg xmlns="http://www.w3.org/2000/svg" xmlns:xlink="http://www.w3.org/1999/xlink" width="58px" height="53px" viewBox="0 0 58 53" version="1.1">
    <!-- Generator: Sketch 52.6 (67491) - http://www.bohemiancoding.com/sketch -->
    <title>022 - Gift Box</title>
    <desc>Created with Sketch.</desc>
    <g id="Page-1" stroke="none" stroke-width="1" fill="none" fill-rule="evenodd">
        <g id="022---Gift-Box" transform="translate(-1.000000, -1.000000)">
            <path d="M57.0000001,22.72 L57,43.31 C57.0002166,44.1553059 56.4671618,44.9087969 55.67,45.19 L44,49.33 L42,50.04 L31.68,53.71 C31.4578382,53.7884716 31.2306612,53.8519475 31,53.9 C30.34,54.0333333 29.66,54.0333333 29,53.9 C28.7693388,53.8519475 28.5421618,53.7884716 28.32,53.71 L19,50.4 L17,49.69 L4.33,45.19 C3.53283816,44.9087969 2.9997834,44.1553059 3,43.31 L2.99999993,22.72 L57.0000001,22.72 Z" id="Path" fill="#2980BA"/>
            <path d="M59.0000121,14 L59,20.6 C59.0029369,21.4461681 58.4688804,22.201075 57.67,22.48 L57,22.72 L46,26.63 L44,27.34 L31.68,31.71 C30.5939489,32.0999888 29.4060511,32.0999888 28.32,31.71 L17,27.69 L15,26.98 L3,22.72 L2.33,22.48 C1.53111956,22.201075 0.997063082,21.4461681 1,20.6 L0.999987948,14 L59.0000121,14 Z" id="Path" fill="#3B97D3"/>
            <path d="M31,36 L31,53.9 C30.34,54.0333333 29.66,54.0333333 29,53.9 L29,36 C29,35.4477153 29.4477153,35 30,35 C30.5522847,35 31,35.4477153 31,36 Z" id="Path" fill="#285680"/>
            <polygon id="Path" fill="#F0C419" points="19 28.4 19 50.4 17 49.69 17 27.69"/>
            <polygon id="Path" fill="#F0C419" points="44 27.34 44 49.33 42 50.04 42 28.05"/>
            <path d="M48.96,9.73 L58.33,13.06 C58.7313602,13.1979849 59.0008344,13.5755829 59.0008344,14 C59.0008344,14.4244171 58.7313602,14.8020151 58.33,14.94 L31.68,24.4 C30.5939489,24.7899888 29.4060511,24.7899888 28.32,24.4 L1.67,14.94 C1.26863976,14.8020151 0.999165592,14.4244171 0.999165592,14 C0.999165592,13.5755829 1.26863976,13.1979849 1.67,13.06 L11.04,9.73 L48.96,9.73 Z" id="Path" fill="#84B5CB"/>
            <path d="M46,20 L46,26.63 L44,27.34 L44,20.66 L43.2,20.31 L43.19,20.31 L30.5,14.87 L17.36,20.51 L17,20.66 L17,27.69 L15,26.98 L15,20 C15.0011691,19.8947561 15.018021,19.7902745 15.05,19.69 C15.1420212,19.4166334 15.3454808,19.1950078 15.61,19.08 L27.95,13.8 L27.96,13.79 L27.71,13.68 L28.5,11.84 L30.5,12.7 L32.86,11.68 L33.59,13.37 L33.65,13.52 L33.04,13.79 L45.39,19.08 C45.5461705,19.1452721 45.6811751,19.2525834 45.78,19.39 L45.79,19.39 C45.9254677,19.5645498 45.9993122,19.7790506 46,20 Z" id="Path" fill="#F3D55B"/>
            <path d="M38,9 C37.9974114,9.37364208 37.953817,9.74587116 37.87,10.11 C37.6066892,11.0752064 37.0845369,11.9500708 36.36,12.64 C34.6221608,14.2149261 32.34454,15.060081 30,15 C27.65546,15.060081 25.3778392,14.2149261 23.64,12.64 C22.9154631,11.9500708 22.3933108,11.0752064 22.13,10.11 C22.046183,9.74587116 22.0025886,9.37364208 22,9 C22,6.9 23.44,5.05 25.63,3.98 C28.3968092,2.67328866 31.6031908,2.67328866 34.37,3.98 C36.56,5.05 38,6.9 38,9 Z" id="Path" fill="#DF4D60"/>
            <path d="M22,9 C22.0025886,9.37364208 22.046183,9.74587116 22.13,10.11 L22.12,10.11 C21.1148686,9.96975318 20.0951314,9.96975318 19.09,10.11 C19.08,10.12 19.08,10.12 19.07,10.11 C19.06,10.1 19.06,10.12 19.05,10.12 C16.268027,10.5582275 13.7519945,12.0250209 12,14.23 L11.04,10.73 L9.91,6.57 C9.34786733,4.4729875 10.5518863,2.30840922 12.63,1.68 C17.0761765,0.237005092 21.9488223,1.09908858 25.63,3.98 C23.44,5.05 22,6.9 22,9 Z" id="Path" fill="#FB7B76"/>
            <path d="M23.64,12.64 C17.76,19.03 12,14.23 12,14.23 C13.7519945,12.0250209 16.268027,10.5582275 19.05,10.12 C19.06,10.12 19.06,10.11 19.07,10.11 C19.08,10.11 19.08,10.12 19.09,10.11 C20.0951314,9.96975318 21.1148686,9.96975318 22.12,10.11 L22.13,10.11 C22.3933108,11.0752064 22.9154631,11.9500708 23.64,12.64 Z" id="Path" fill="#FF5364"/>
            <path d="M48,14.23 C48,14.23 42.24,19.03 36.36,12.64 C37.0845369,11.9500708 37.6066892,11.0752064 37.87,10.11 L37.88,10.11 C41.7434311,9.60583497 45.587296,11.1707286 48,14.23 Z" id="Path" fill="#FF5364"/>
            <path d="M50.09,6.57 L48.96,10.73 L48,14.23 C45.587296,11.1707286 41.7434311,9.60583497 37.88,10.11 L37.87,10.11 C37.953817,9.74587116 37.9974114,9.37364208 38,9 C38,6.9 36.56,5.05 34.37,3.98 C38.0511777,1.09908858 42.9238235,0.237005092 47.37,1.68 C49.4481137,2.30840922 50.6521327,4.4729875 50.09,6.57 Z" id="Path" fill="#FB7B76"/>
        </g>
    </g>
</svg>
